<?xml version="1.0" encoding="utf-8"?>
<!-- Svg Vector Icons : http://www.onlinewebfonts.com/icon -->
<!DOCTYPE svg PUBLIC "-//W3C//DTD SVG 1.1//EN" "http://www.w3.org/Graphics/SVG/1.1/DTD/svg11.dtd">
<svg version="1.1" xmlns="http://www.w3.org/2000/svg" xmlns:xlink="http://www.w3.org/1999/xlink" x="0px" y="0px" viewBox="0 0 1000 1000" enable-background="new 0 0 1000 1000" xml:space="preserve">
<metadata> Svg Vector Icons : http://www.onlinewebfonts.com/icon </metadata>
<g><g transform="translate(0.000000,511.000000) scale(0.100000,-0.100000)"><path d="M1605.6,4982.3c-213-46.9-392.8-177.9-506.2-365.5c-129-213-125.1-132.9-119.2-2333.6L986,291.6l45-107.5c89.9-220.9,252.1-383.1,473-473c105.5-43,123.1-45,899.1-45h791.6l9.8,205.2c9.8,213,25.4,258,125.1,367.4c183.7,205.2,523.8,103.6,607.8-179.8c15.6-52.8,29.3-166.1,29.3-250.2v-152.5h1033.9h1032l9.8,189.6c11.7,218.9,46.9,312.7,160.3,412.4c140.7,123.1,314.7,121.2,455.4-1.9c103.6-91.9,146.6-205.2,158.3-418.3l9.8-181.8h717.3c400.7,0,764.2,7.8,820.9,19.6c308.8,58.6,555.1,289.2,637.1,596.1c21.5,78.2,27.4,484.7,27.4,2062s-5.9,1983.8-27.4,2062c-82.1,306.9-328.3,537.5-637.1,596.1c-66.5,11.7-1250.9,19.5-3369.5,17.6C2301.4,5009.7,1707.2,5003.8,1605.6,4982.3z M5262.4,3786.2c140.7-78.2,201.3-164.2,299-435.8c91.9-254.1,103.6-347.9,64.5-527.7c-15.6-74.3-33.2-103.6-64.5-117.3c-31.3-11.7-52.8-46.9-76.2-134.9c-17.6-64.5-60.6-164.2-95.8-218.9c-44.9-76.2-56.7-109.5-41-132.9c9.8-17.6,164.2-107.5,344-199.4c394.8-203.3,439.8-238.4,533.6-392.8l72.3-119.2l-21.5-129c-25.4-148.5-86-220.9-217-256c-54.7-13.7-412.4-19.5-1100.4-15.6l-1022.2,5.9l-84,44.9c-93.8,50.8-117.3,95.8-132.9,256c-9.8,95.8-2,125.1,56.7,246.3c99.7,205.2,150.5,250.2,355.7,312.7c207.2,62.5,435.8,166.1,486.7,222.8c37.1,41,37.1,43-31.3,193.5c-39.1,82.1-82.1,185.7-93.8,228.7c-13.7,43-41,97.7-62.5,121.2c-58.6,62.5-64.5,230.6-17.6,514c35.2,207.2,50.8,256,109.4,345.9C4685.8,3842.9,5006.4,3925,5262.4,3786.2z"/><path d="M1570.4-988.6c-258-27.4-500.3-123.1-562.9-220.8c-43-66.5-254.1-1565.5-226.7-1614.4c54.7-105.5,252.1-195.4,510.1-236.5c105.5-15.6,1121.9-19.6,3799.5-15.6c3635.3,5.8,3654.9,5.8,3783.8,46.9c175.9,54.7,308.8,134.9,338.1,205.2c21.5,48.9,9.8,166.1-80.1,795.5c-58.6,404.6-113.4,760.3-125.1,789.6c-27.4,66.4-138.8,140.7-287.3,189.6c-183.7,62.5-506.2,82.1-1235.2,76.2l-674.3-5.9l-9.8-195.4c-11.7-224.8-46.9-314.7-162.2-408.5c-89.9-72.3-263.8-93.8-359.6-44.9c-164.2,86-240.4,244.3-240.4,506.2V-969H5004.4h-1032l-9.8-189.6c-9.8-203.3-37.1-283.4-130.9-383.1c-74.3-82.1-142.7-111.4-256-111.4c-111.4,0-181.8,29.3-258,111.4c-82.1,86-117.3,193.5-129,392.8l-9.8,179.8l-734.9-2C2039.5-972.9,1646.6-980.8,1570.4-988.6z"/><path d="M1007.5-3388.7c-3.9-7.8-13.7-74.3-21.5-146.6l-13.7-132.9l78.2-76.2c88-82.1,242.4-142.7,453.4-175.9c175.9-27.4,6821.1-27.4,6997,0c211.1,35.2,365.5,93.8,453.4,177.8l78.2,74.3l-11.7,113.4c-23.4,189.6-19.6,185.7-119.2,140.7c-220.8-97.7-134.9-95.8-3899.2-95.8c-3764.3,0-3678.3-1.9-3899.2,95.8C1056.4-3392.6,1013.4-3380.8,1007.5-3388.7z"/><path d="M1203-4322.9c-5.9-50.8-11.7-119.2-11.7-154.4c0-113.4,132.9-211.1,377.2-279.5c113.4-31.3,353.8-33.2,3434-33.2c3105.7,0,3320.7,2,3437.9,35.2c156.4,43,304.9,121.2,345.9,185.7c25.4,39.1,29.3,78.2,21.5,185.7c-13.7,148.6-19.6,166.1-56.7,134.9c-13.7-9.8-86-41.1-162.2-64.5l-136.8-46.9l-3342.2-5.9c-2419.6-3.9-3385.1,0-3498.5,15.6c-132.9,19.5-216.9,43-363.5,105.5C1222.5-4233,1214.7-4248.6,1203-4322.9z"/></g></g>
</svg>